<?xml version="1.0" encoding="utf-8"?>
<!-- Generator: $$$/GeneralStr/196=Adobe Illustrator 27.6.0, SVG Export Plug-In . SVG Version: 6.00 Build 0)  -->
<svg version="1.1" id="Livello_1" xmlns="http://www.w3.org/2000/svg" xmlns:xlink="http://www.w3.org/1999/xlink" x="0px" y="0px"
	 viewBox="0 0 128 128" style="enable-background:new 0 0 128 128;" xml:space="preserve">
<style type="text/css">
	.st0{fill:#FFFFFF;}
</style>
<path class="st0" d="M125.6,39.9l-58.5-39c-2-1.2-4.1-1.2-6.1,0l-58.5,39c-1.5,1-2.4,2.8-2.4,4.6v39c0,1.8,0.9,3.6,2.4,4.6l58.5,39
	c2,1.2,4.1,1.2,6.1,0l58.5-39c1.5-1,2.4-2.8,2.4-4.6v-39C128,42.7,127.1,40.9,125.6,39.9L125.6,39.9z M69.5,15.8l43.1,28.7
	L93.4,57.4L69.5,41.4L69.5,15.8L69.5,15.8z M58.5,15.8v25.6L34.6,57.4L15.4,44.5L58.5,15.8z M11,54.8L24.8,64L11,73.2V54.8z
	 M58.5,112.2L15.4,83.5l19.2-12.9l23.9,15.9V112.2z M64,77L44.6,64L64,51l19.4,13L64,77z M69.5,112.2V86.6l23.9-15.9l19.2,12.9
	L69.5,112.2L69.5,112.2z M117,73.2L103.2,64l13.8-9.2V73.2z"/>
</svg>
