<?xml version="1.0" encoding="utf-8"?>
<!-- Generator: $$$/GeneralStr/196=Adobe Illustrator 27.6.0, SVG Export Plug-In . SVG Version: 6.00 Build 0)  -->
<svg version="1.1" id="Livello_1" xmlns="http://www.w3.org/2000/svg" xmlns:xlink="http://www.w3.org/1999/xlink" x="0px" y="0px"
	 viewBox="0 0 128 128" style="enable-background:new 0 0 128 128;" xml:space="preserve">
<style type="text/css">
	.st0{fill:#478CBF;}
	.st1{fill:#FFFFFF;}
	.st2{fill:#414042;}
</style>
<path class="st0" d="M111.6,29.7c-3.6,1.8-7,3.8-10.3,6c-1.6-1.6-3.5-3-5.3-4.4c-1.8-1.4-3.8-2.5-5.7-3.7c0.6-4.2,0.9-8.4,1-12.7
	c-4.9-2.5-10.2-4.1-15.5-5.3c-2.1,3.6-4.1,7.4-5.7,11.2c-2-0.3-4-0.5-6-0.5H64c-2,0-4,0.2-6,0.5c-1.7-3.8-3.6-7.6-5.7-11.2
	c-5.3,1.2-10.5,2.8-15.5,5.3c0.1,4.3,0.4,8.5,1,12.7c-1.9,1.2-3.9,2.3-5.7,3.7c-1.8,1.4-3.7,2.7-5.3,4.4c-3.3-2.2-6.8-4.2-10.3-6
	C12.5,33.8,8.9,38.3,6,43.3c2.3,3.6,4.8,7.3,7.1,10.1v30.7h0.2L32.1,86c1,0.1,1.8,0.9,1.8,1.9l0.6,8.3l16.4,1.2l1.1-7.7
	c0.2-1,1-1.7,2-1.7h19.9c1,0,1.9,0.7,2,1.7l1.1,7.7l16.4-1.2l0.6-8.3c0.1-1,0.8-1.8,1.8-1.9l18.8-1.8h0.2V53.4
	c2.7-3.3,5.2-7,7.1-10.1C119.1,38.3,115.5,33.8,111.6,29.7z M67.7,75c0,1.8-1.6,3.3-3.7,3.3s-3.7-1.5-3.7-3.3V64.5
	c0-1.8,1.6-3.3,3.7-3.3s3.7,1.5,3.7,3.3V75z"/>
<path class="st0" d="M98,89.8l-0.6,8.4c-0.1,1-0.9,1.8-1.9,1.9l-20.1,1.4c0,0-0.1,0-0.1,0c-1,0-1.9-0.7-2-1.7L72.2,92H55.8l-1.2,7.8
	c-0.2,1-1.1,1.8-2.1,1.7l-20.1-1.4c-1-0.1-1.8-0.9-1.9-1.9L30,89.8l-16.9-1.6c0,1.8,0,3.8,0,4.2c0,17.9,22.7,26.5,50.9,26.6H64
	c28.2-0.1,50.9-8.7,50.9-26.6c0-0.4,0-2.4,0-4.2L98,89.8z"/>
<path class="st1" d="M48.7,65.9c0,6.3-5.1,11.4-11.4,11.4C31,77.2,26,72.2,26,65.9c0-6.3,5.1-11.3,11.3-11.3
	C43.6,54.6,48.7,59.6,48.7,65.9"/>
<path class="st2" d="M45.9,66.6c0,4.2-3.4,7.5-7.5,7.5c0,0,0,0,0,0c-4.2,0-7.5-3.4-7.5-7.5c0-4.2,3.4-7.5,7.5-7.5
	C42.5,59,45.9,62.4,45.9,66.6C45.9,66.6,45.9,66.6,45.9,66.6"/>
<path class="st1" d="M90.7,54.5c-6.3,0-11.4,5.1-11.4,11.4c0,6.3,5.1,11.3,11.4,11.3c6.3,0,11.3-5.1,11.3-11.3
	C102,59.6,97,54.5,90.7,54.5z"/>
<path class="st2" d="M82.1,66.6c0,4.2,3.4,7.5,7.5,7.5c0,0,0,0,0,0c4.2,0,7.5-3.4,7.5-7.5S93.8,59,89.6,59l0,0
	C85.5,59,82.1,62.4,82.1,66.6C82.1,66.6,82.1,66.6,82.1,66.6"/>
</svg>
