<?xml version="1.0" encoding="utf-8"?>
<!-- Generator: $$$/GeneralStr/196=Adobe Illustrator 27.6.0, SVG Export Plug-In . SVG Version: 6.00 Build 0)  -->
<svg version="1.1" id="lua-original-wordmark-Ebene_1"
	 xmlns="http://www.w3.org/2000/svg" xmlns:xlink="http://www.w3.org/1999/xlink" x="0px" y="0px" viewBox="0 0 128 128"
	 style="enable-background:new 0 0 128 128;" xml:space="preserve">
<style type="text/css">
	.st0{fill:#000080;}
	.st1{fill:#FFFFFF;}
	.st2{fill:#808080;}
</style>
<g>
	<path class="st0" d="M64,15.1c-27,0-49,21.9-49,49c0,27.1,21.9,49,49,49s49-21.9,49-49C113,37,91,15.1,64,15.1z M50.7,88.5h-20
		V56.4h4.1v28.5h15.9V88.5z M73,88.5h-3.3v-3.2c-2.2,3-4.3,4.2-7.7,4.2c-4.5,0-7.4-2.5-7.4-6.3V65.4h3.7v16.3c0,2.8,1.9,4.5,4.8,4.5
		c3.8,0,6.3-3.1,6.3-7.8v-13H73V88.5z M70,43.7c0-7.9,6.4-14.3,14.3-14.3c7.9,0,14.3,6.4,14.3,14.3c0,7.9-6.4,14.3-14.3,14.3
		C76.4,58,70,51.6,70,43.7z M97.3,89.5c-2.4,0-3.5-1.1-3.8-3.4c-2.6,2.4-4.9,3.4-7.8,3.4c-4.7,0-7.6-2.6-7.6-6.8
		c0-3,1.4-5.1,4.1-6.2c1.4-0.6,2.2-0.7,7.4-1.4c2.9-0.4,3.8-1,3.8-2.6v-1c0-2.2-1.9-3.4-5.2-3.4c-3.4,0-5.1,1.3-5.4,4.1h-3.7
		c0.1-2.3,0.5-3.6,1.6-4.8c1.5-1.7,4.3-2.7,7.7-2.7c5.7,0,8.7,2.2,8.7,6.3v13.6c0,1.1,0.7,1.8,2,1.8c0.2,0,0.4,0,0.8-0.1l-0.1,2.8
		C98.6,89.4,98,89.5,97.3,89.5z"/>
	<g>
		<path class="st1" d="M84.3,57.6c-7.7,0-13.9-6.2-13.9-13.9s6.2-13.9,13.9-13.9S98.2,36,98.2,43.7S92,57.6,84.3,57.6z"/>
		<path class="st0" d="M84.3,30.2c7.5,0,13.5,6.1,13.5,13.5s-6.1,13.5-13.5,13.5s-13.5-6.1-13.5-13.5S76.8,30.2,84.3,30.2
			 M84.3,29.4c-7.9,0-14.3,6.4-14.3,14.3C70,51.6,76.4,58,84.3,58c7.9,0,14.3-6.4,14.3-14.3C98.6,35.8,92.2,29.4,84.3,29.4
			L84.3,29.4z"/>
	</g>
	<path class="st1" d="M99.1,86.4c-1.3,0-2-0.7-2-1.8V71c0-4.1-3-6.3-8.7-6.3c-3.4,0-6.2,1-7.7,2.7c-1.1,1.2-1.5,2.5-1.6,4.8h3.7
		c0.3-2.8,2-4.1,5.4-4.1c3.3,0,5.2,1.2,5.2,3.4v1c0,1.6-0.9,2.2-3.8,2.6c-5.2,0.7-6,0.8-7.4,1.4c-2.7,1.1-4.1,3.2-4.1,6.2
		c0,4.2,2.9,6.8,7.6,6.8c2.9,0,5.2-1,7.8-3.4c0.3,2.3,1.4,3.4,3.8,3.4c0.7,0,1.3-0.1,2.5-0.4l0.1-2.8C99.5,86.4,99.3,86.4,99.1,86.4
		z M93.4,81.2c0,1.2-0.4,2-1.5,3c-1.5,1.4-3.3,2.1-5.5,2.1c-2.8,0-4.5-1.4-4.5-3.7c0-2.4,1.7-3.7,5.6-4.2c3.9-0.6,4.7-0.7,5.9-1.3
		V81.2z"/>
	<path class="st1" d="M73,65.4v23.1h-3.3v-3.2c-2.2,3-4.3,4.2-7.7,4.2c-4.5,0-7.4-2.5-7.4-6.3V65.4h3.7v16.3c0,2.8,1.9,4.5,4.8,4.5
		c3.8,0,6.3-3.1,6.3-7.8v-13H73z"/>
	<polygon class="st1" points="50.7,84.9 50.7,88.5 30.7,88.5 30.7,56.4 34.8,56.4 34.8,84.9 	"/>
	<path class="st0" d="M93.4,77.1v4.1c0,1.2-0.4,2-1.5,3c-1.5,1.4-3.3,2.1-5.5,2.1c-2.8,0-4.5-1.4-4.5-3.7c0-2.4,1.7-3.7,5.6-4.2
		C91.4,77.8,92.2,77.7,93.4,77.1z"/>
</g>
<g>
	<path class="st2" d="M60.8,127c-1.7-0.1-3.3-0.3-5-0.4l-1-0.1l0.3-2.5l0.5,0.1c1.7,0.2,3.5,0.4,5.2,0.5l0.5,0v2.5L60.8,127z
		 M65.6,124.6l0.5,0c1.7-0.1,3.5-0.2,5.2-0.4l0.5-0.1l0.3,2.5l-0.5,0.1c-1.7,0.2-3.4,0.3-5.1,0.4l-0.8,0L65.6,124.6z M76.1,123.4
		l0.5-0.1c1.7-0.4,3.3-0.8,5.1-1.4l0.5-0.2l0.7,2.3l-0.4,0.2c-1.9,0.7-3.6,1.1-5.4,1.4l-0.5,0.1L76.1,123.4z M49.8,125.4
		c-1.8-0.4-3.6-0.9-5.3-1.5l-0.5-0.2l0.8-2.3l0.5,0.2c1.1,0.4,2.3,0.7,3.5,1c0.5,0.1,1.1,0.3,1.6,0.4l0.5,0.1l-0.7,2.3L49.8,125.4z
		 M86.2,120.4l0.5-0.2c1.5-0.6,3.1-1.3,4.8-2.2l0.4-0.2l1.2,2.1l-0.4,0.2c-1.7,0.9-3.4,1.7-5,2.4l-0.5,0.2L86.2,120.4z M39.4,122.1
		c-1.8-0.7-3.5-1.5-4.9-2.4l-0.4-0.2l1.2-2.2l0.4,0.2c1,0.5,2,1,3,1.5c0.6,0.3,1.2,0.6,1.8,0.9l0.4,0.2l-1,2.1L39.4,122.1z
		 M95.7,115.7l0.4-0.3c1.4-1,2.9-1.9,4.4-3l0.4-0.3l1.5,2l-0.4,0.3c-1.1,0.8-2.2,1.5-3.2,2.2c-0.4,0.3-1.7,1.1-1.7,1.1L95.7,115.7z
		 M29.8,116.9c-1.4-0.9-2.8-1.9-4.4-3.2l-0.4-0.3l1.5-2l0.4,0.3c1.4,1.1,2.9,2.2,4.3,3.1l0.4,0.3l-1.3,2L29.8,116.9z M104.2,109.4
		l0.4-0.3c1.4-1.3,2.7-2.5,3.8-3.7l0.3-0.4l1.8,1.7l-0.4,0.4c-0.6,0.6-1.3,1.3-2,1.9c-0.7,0.6-1.3,1.3-1.9,1.9l-0.4,0.4L104.2,109.4
		z M21.1,110.2c-1.6-1.4-2.8-2.7-3.8-3.9l-0.3-0.4l1.8-1.6l0.3,0.4c1.3,1.4,2.5,2.7,3.7,3.8l0.4,0.3l-1.6,1.8L21.1,110.2z
		 M111.4,101.7l0.3-0.4c1.1-1.4,2.2-2.9,3.1-4.3l0.3-0.4l2,1.3l-0.3,0.4c-0.9,1.3-2,3-3.1,4.4l-0.3,0.4L111.4,101.7z M13.7,102
		c-1.1-1.4-2.2-2.9-3.1-4.5l-0.3-0.4l2-1.3l0.3,0.4c1,1.4,1.9,2.9,3,4.4l0.3,0.4l-1.8,1.5L13.7,102z M117.3,92.9l0.2-0.4
		c0.5-1,1-2,1.5-3c0.3-0.6,0.6-1.2,0.9-1.8l0.2-0.4l2.2,0.8l-2.8,5.9L117.3,92.9z M7.9,92.6c-0.8-1.6-1.6-3.3-2.3-5l-0.2-0.5
		l2.2-0.8l0.2,0.5c0.6,1.5,1.3,3.1,2.2,4.8l0.2,0.5l-2.2,1L7.9,92.6z M121.5,83.2l0.2-0.5c0.4-1.1,0.7-2.3,1-3.5
		c0.1-0.5,0.3-1.1,0.4-1.6l0.1-0.5l2.3,0.5l-0.1,0.5c-0.4,1.8-0.9,3.6-1.5,5.4l-0.2,0.5L121.5,83.2z M3.8,82.5
		c-0.5-1.7-1-3.5-1.4-5.3l-0.1-0.5l2.3-0.5l0.1,0.5c0.4,1.6,0.8,3.3,1.4,5.1l0.2,0.5L3.9,83L3.8,82.5z M123.9,72.9l0.1-0.5
		c0.2-1.7,0.4-3.5,0.5-5.2l0-0.5l2.4,0.2v0.5c0,1.6-0.2,3.5-0.5,5.5l-0.1,0.5L123.9,72.9z M1.5,71.8C1.2,69.9,1.1,68,1,66.3l0-0.5
		l2.5-0.2l0,0.5c0.1,1.7,0.2,3.5,0.4,5.2l0,0.5l-2.3,0.5L1.5,71.8z M124.6,62.4l0-0.5c-0.1-1.7-0.2-3.5-0.4-5.2l-0.1-0.5l2.5-0.3
		l0.1,0.5c0.2,1.9,0.4,3.7,0.4,5.5v0.5H124.6z M1,61.2l0-0.5c0.1-1.7,0.3-3.3,0.4-5l0.1-1L4,55.2L4,55.7c-0.2,1.7-0.4,3.5-0.5,5.2
		l0,0.5L1,61.2z M123.3,51.4c-0.4-1.7-0.8-3.5-1.4-5.1l-0.2-0.5l2.4-0.7l0.1,0.5c0.5,1.7,1,3.5,1.4,5.3l0.1,0.5l-2.3,0.5L123.3,51.4
		z M2.5,50.4l0.1-0.5c0.4-1.8,0.9-3.6,1.5-5.3l0.2-0.5l2.3,0.8l-0.2,0.5c-0.6,1.7-1.1,3.4-1.4,5l-0.1,0.5L2.5,50.4z M120.2,41.3
		c-0.7-1.6-1.4-3.3-2.2-4.8l-0.2-0.4l2.2-1.2l0.2,0.5c0.8,1.6,1.6,3.3,2.3,5l0.2,0.4l-2.2,1L120.2,41.3z M5.7,40l0.2-0.5
		c0.7-1.8,1.5-3.5,2.4-4.9l0.2-0.4l2.1,1.2l-0.2,0.4C9.7,37,9,38.7,8.2,40.4L8,40.8L5.7,40z M10.9,30.2l0.3-0.4
		c0.9-1.4,1.9-2.8,3.2-4.4l0.3-0.4l2,1.5l-0.3,0.4c-1.2,1.3-2.1,2.8-3.1,4.2l-0.3,0.4L10.9,30.2z M17.5,21.5l0.3-0.4
		c1.4-1.6,2.7-2.8,3.9-3.8l0.4-0.3l1.6,1.8l-0.4,0.3c-1.2,1-2.5,2.2-3.8,3.7l-0.3,0.4L17.5,21.5z M25.6,14l0.4-0.3
		c1.4-1.1,2.9-2.2,4.5-3.1l0.4-0.3l1.3,2l-1.1,0.8c-1.3,0.9-2.5,1.7-3.6,2.6L27.1,16L25.6,14z M92.4,10.4c-1.6-0.8-3.2-1.6-4.8-2.2
		L87.2,8L88,5.7l0.5,0.2c1.8,0.7,3.5,1.5,4.9,2.4l0.4,0.2l-1,2.2L92.4,10.4z M34.8,8.1l0.5-0.2c1.6-0.8,3.3-1.6,5-2.3l0.4-0.2l1,2.2
		l-0.5,0.2c-1.5,0.6-3.1,1.3-4.8,2.2L36,10.3L34.8,8.1z M82.6,6.4c-1.6-0.6-3.4-1-5.1-1.4L77,4.9l0.5-2.3L78,2.7
		c1.8,0.4,3.6,0.9,5.3,1.5l0.5,0.2l-0.7,2.2L82.6,6.4z M45,3.9l0.5-0.1c1.7-0.5,3.5-1,5.3-1.4l0.5-0.1l0.5,2.3l-0.5,0.1
		c-1.9,0.4-3.7,0.9-5.1,1.4l-0.5,0.1L45,3.9z M72.3,4c-1.7-0.2-3.5-0.4-5.2-0.5l-0.5,0L66.8,1l0.5,0c1.7,0.1,3.3,0.3,5,0.4l1,0.1
		L72.8,4L72.3,4z M55.7,1.5l0.5-0.1C58.1,1.2,59.9,1,61.8,1h0.5l0.2,2.5h-0.5c-1.8,0-3.6,0.2-5.3,0.4L56,3.9L55.7,1.5z"/>
	<path class="st1" d="M67.2,1.5c1.9,0.1,3.6,0.3,5.5,0.5l-0.3,1.5c-1.8-0.2-3.5-0.4-5.3-0.5L67.2,1.5 M61.8,1.5L61.9,3
		c-1.9,0-3.6,0.2-5.4,0.4l-0.2-1.5C58,1.7,59.9,1.5,61.8,1.5 M50.9,2.9l0.3,1.4c-1.8,0.4-3.5,0.9-5.2,1.4l-0.4-1.4
		C47.4,3.7,49.2,3.3,50.9,2.9 M77.9,3.2c1.8,0.4,3.5,0.9,5.3,1.5l-0.4,1.3c-1.7-0.6-3.4-1-5.2-1.4L77.9,3.2 M40.5,6.1l0.6,1.3
		c-1.7,0.7-3.3,1.5-4.9,2.2l-0.7-1.3C37.1,7.6,38.8,6.8,40.5,6.1 M88.3,6.4c1.7,0.7,3.3,1.5,4.9,2.3L92.6,10
		c-1.6-0.8-3.2-1.6-4.8-2.2L88.3,6.4 M30.8,11l0.8,1.2c-1.6,1.1-3,2.1-4.4,3.1l-0.9-1.2C27.8,13,29.2,11.9,30.8,11 M22.1,17.6l1,1.1
		c-1.4,1.2-2.6,2.4-3.8,3.7l-1.1-1C19.5,20.1,20.7,18.8,22.1,17.6 M14.7,25.6l1.2,0.9c-1.2,1.4-2.1,2.8-3.1,4.3L11.6,30
		C12.5,28.5,13.6,27,14.7,25.6 M8.7,34.8l1.3,0.7c-0.8,1.5-1.6,3.1-2.2,4.7l-1.4-0.5C7.1,38,7.8,36.4,8.7,34.8 M119.7,35.6
		c0.8,1.7,1.6,3.3,2.2,5l-1.3,0.6c-0.7-1.7-1.4-3.3-2.2-4.9L119.7,35.6 M4.5,44.8l1.4,0.5c-0.6,1.7-1.1,3.3-1.5,5.1L3.1,50
		C3.5,48.3,3.9,46.5,4.5,44.8 M123.8,45.7c0.5,1.8,1,3.5,1.4,5.3l-1.4,0.3c-0.4-1.8-0.8-3.5-1.4-5.2L123.8,45.7 M2,55.3l1.5,0.3
		c-0.2,1.8-0.4,3.5-0.5,5.3l-1.5-0.1C1.6,58.9,1.8,57.2,2,55.3 M126.1,56.4c0.2,1.8,0.4,3.6,0.4,5.5H125c-0.1-1.8-0.2-3.5-0.4-5.3
		L126.1,56.4 M3,66.1c0.1,1.8,0.2,3.5,0.4,5.3c0,0-1.4,0.3-1.4,0.3c-0.3-1.9-0.4-3.6-0.5-5.5L3,66.1 M124.9,67.2l1.5,0.1
		c0,1.8-0.2,3.6-0.5,5.4l-1.5-0.2C124.6,70.7,124.8,69,124.9,67.2 M4.2,76.8C4.6,78.6,5,80.2,5.6,82l-1.4,0.4
		c-0.5-1.8-1-3.5-1.4-5.3L4.2,76.8 M123.6,77.7l1.4,0.3c-0.4,1.9-0.9,3.6-1.5,5.4l-1.4-0.5C122.7,81.2,123.1,79.4,123.6,77.7
		 M7.4,86.9c0.7,1.7,1.4,3.2,2.2,4.9l-1.3,0.6c-0.8-1.7-1.6-3.3-2.2-5L7.4,86.9 M120.3,87.9l1.3,0.5l-2.3,5l-1.3-0.7
		C118.9,91.1,119.6,89.5,120.3,87.9 M12.1,96.4c1,1.5,2,2.9,3,4.4l-1.1,0.9c-1.1-1.5-2.1-2.9-3.1-4.5L12.1,96.4 M115.3,97.3l1.2,0.8
		c-1,1.5-2.1,3-3.1,4.4l-1.2-0.9C113.2,100.2,114.3,98.8,115.3,97.3 M18.7,104.9c1.2,1.3,2.4,2.6,3.7,3.8l-1,1.1
		c-1.4-1.3-2.6-2.5-3.8-3.9L18.7,104.9 M108.7,105.7l1.1,1c-1.3,1.3-2.6,2.5-3.9,3.8l-1-1.1C106.2,108.2,107.6,107,108.7,105.7
		 M26.5,112.1c1.4,1.1,2.8,2.1,4.3,3.1l-0.8,1.2c-1.6-1-3-2.1-4.4-3.1L26.5,112.1 M100.8,112.8l0.9,1.2c-1.5,1.1-3,2.1-4.5,3
		l-0.8-1.2C97.9,114.9,99.4,113.9,100.8,112.8 M35.4,118c1.6,0.9,3.2,1.6,4.8,2.3l-0.6,1.3c-1.7-0.7-3.3-1.5-4.9-2.3L35.4,118
		 M91.7,118.4l0.7,1.3c-1.7,0.9-3.3,1.7-5,2.3l-0.6-1.4C88.5,120,90.1,119.3,91.7,118.4 M45.2,122.1c1.7,0.6,3.4,1,5.2,1.5l-0.4,1.4
		c-1.8-0.4-3.5-0.9-5.3-1.5L45.2,122.1 M81.9,122.4l0.4,1.4c-1.7,0.6-3.4,1.1-5.3,1.4l-0.3-1.4C78.5,123.4,80.1,123,81.9,122.4
		 M55.5,124.5c1.8,0.2,3.5,0.4,5.3,0.5v1.5c-1.9-0.1-3.6-0.3-5.5-0.5L55.5,124.5 M71.4,124.6l0.2,1.5c-1.8,0.2-3.6,0.3-5.4,0.4
		l-0.1-1.5C67.9,124.9,69.7,124.8,71.4,124.6 M66.3,0.4l-0.1,1l-0.1,1.5l-0.1,1l1,0.1c1.7,0.1,3.5,0.3,5.2,0.5l0.9,0.1l0.2-0.9
		l0.3-1.5l0.2-1.1L72.8,1l-0.5-0.1c-1.7-0.2-3.3-0.4-5-0.4L66.3,0.4L66.3,0.4z M62.7,0.5h-0.9c-1.9,0-3.7,0.2-5.6,0.4l-1,0.1l0.1,1
		l0.2,1.5l0.1,1l1-0.1C58.4,4.2,60.1,4,61.9,4h1.1l-0.1-1.1l-0.1-1.5L62.7,0.5L62.7,0.5z M51.7,1.7l-1,0.2c-1.8,0.4-3.6,0.9-5.3,1.4
		l-1,0.3l0.3,1l0.4,1.4l0.3,1l1-0.3c1.4-0.4,3.2-0.9,5.1-1.4l1-0.2l-0.2-1l-0.3-1.4L51.7,1.7L51.7,1.7z M77.1,2l-0.2,1l-0.3,1.4
		l-0.2,1l1,0.2c1.7,0.4,3.5,0.8,5.1,1.3l1,0.3l0.3-1l0.4-1.3L84.4,4l-0.9-0.3c-1.8-0.6-3.6-1.1-5.4-1.5L77.1,2L77.1,2z M41,4.8
		l-0.9,0.4c-1.7,0.7-3.4,1.5-5,2.3l-1,0.4l0.5,0.9l0.7,1.3l0.5,0.9l0.9-0.4c1.8-0.9,3.3-1.6,4.8-2.2l1-0.4L42,6.9l-0.6-1.3L41,4.8
		L41,4.8z M87.7,5.1l-0.4,1l-0.5,1.4l-0.3,0.9l0.9,0.4c1.5,0.7,3.2,1.4,4.7,2.2l0.9,0.5l0.4-0.9l0.6-1.3l0.4-0.8l-0.8-0.5
		c-1.5-0.8-3.2-1.7-5-2.4L87.7,5.1L87.7,5.1z M31.1,9.6l-0.8,0.5c-1.6,1-3.1,2.1-4.6,3.2l-0.8,0.6l0.6,0.8l0.9,1.2l0.6,0.8l0.8-0.6
		c1.1-0.9,2.3-1.7,3.6-2.6l0.7-0.5l0.8-0.6l-0.5-0.8l-0.8-1.2L31.1,9.6L31.1,9.6z M22.2,16.2l-0.7,0.6c-1.3,1.1-2.5,2.3-4,3.9
		l-0.7,0.7l0.7,0.7l1.1,1l0.7,0.7l0.7-0.7c1.3-1.4,2.5-2.6,3.7-3.6l0.8-0.7L23.8,18l-1-1.1L22.2,16.2L22.2,16.2z M14.5,24.2L13.9,25
		c-1.3,1.6-2.3,3.1-3.2,4.5l-0.5,0.8l0.8,0.5l1.2,0.8l0.8,0.6l0.6-0.8c1-1.5,1.9-2.9,3.1-4.2l0.7-0.8l-0.9-0.6l-1.2-0.9L14.5,24.2
		L14.5,24.2z M8.3,33.5l-0.5,0.9c-0.8,1.5-1.7,3.2-2.4,5l-0.4,1l1,0.4l1.4,0.5l0.9,0.3l0.4-0.9c0.7-1.7,1.5-3.3,2.2-4.6l0.5-0.9
		l-0.9-0.5l-1.3-0.7L8.3,33.5L8.3,33.5z M120.1,34.2l-0.9,0.5l-1.3,0.7l-0.9,0.5l0.5,0.9c0.8,1.5,1.5,3.2,2.2,4.8l0.4,1l0.9-0.4
		l1.3-0.6l0.9-0.4l-0.4-0.9c-0.7-1.7-1.5-3.4-2.3-5L120.1,34.2L120.1,34.2z M3.9,43.5l-0.3,1C3,46.2,2.5,48,2.1,49.8l-0.2,1l1,0.2
		l1.4,0.3l1,0.2l0.2-1c0.4-1.6,0.8-3.3,1.4-5l0.3-0.9l-0.9-0.3l-1.4-0.5L3.9,43.5L3.9,43.5z M124.5,44.5l-1,0.3l-1.4,0.4l-1,0.3
		l0.4,1c0.6,1.6,1,3.4,1.3,5.1l0.2,1l1-0.2l1.4-0.3l1-0.2l-0.2-1c-0.4-1.8-0.9-3.6-1.4-5.3L124.5,44.5L124.5,44.5z M1.1,54.1L1,55.2
		l-0.1,0.5c-0.2,1.7-0.4,3.3-0.4,5l-0.1,1l1,0.1l1.5,0.1l1,0.1l0.1-1c0.1-1.7,0.3-3.5,0.5-5.2l0.1-0.9l-0.9-0.2l-1.5-0.3L1.1,54.1
		L1.1,54.1z M127,55.3l-1,0.1l-1.5,0.2l-1,0.1l0.1,1c0.2,1.7,0.3,3.5,0.4,5.2l0.1,0.9h0.9h1.5h1v-1c0-1.9-0.2-3.7-0.4-5.6L127,55.3
		L127,55.3z M3.9,65.1l-1,0.1l-1.5,0.1l-1,0.1l0.1,1c0.1,1.8,0.2,3.6,0.5,5.6l0.1,0.4l0.3,0.2c0.2,0.1,0.3,0.2,0.5,0.2
		c0.3,0,0.7-0.1,1.7-0.3l0.9-0.2l-0.1-0.9c-0.2-1.7-0.3-3.5-0.4-5.2L3.9,65.1L3.9,65.1z M124,66.2l-0.1,1c-0.1,1.7-0.3,3.5-0.5,5.2
		l-0.1,1l1,0.1l1.5,0.2l1,0.1l0.2-1c0.3-2,0.5-3.9,0.5-5.5v-0.9l-0.9-0.1l-1.5-0.1L124,66.2L124,66.2z M5,75.6l-1,0.2l-1.4,0.3
		l-1,0.2l0.2,1c0.4,1.8,0.9,3.6,1.4,5.3l0.3,1l1-0.3l1.4-0.4l1-0.3l-0.3-1c-0.6-1.8-1-3.4-1.3-5.1L5,75.6L5,75.6z M122.9,76.5
		l-0.3,0.9c-0.2,0.5-0.3,1.1-0.4,1.6c-0.3,1.2-0.6,2.4-1,3.5l-0.3,0.9l0.9,0.3l1.4,0.5l1,0.3l0.3-1c0.6-1.9,1.1-3.7,1.5-5.5l0.2-1
		l-1-0.2l-1.4-0.3L122.9,76.5L122.9,76.5z M7.9,85.7L7,86l-1.3,0.5l-1,0.4l0.4,0.9c0.7,1.7,1.5,3.4,2.3,5l0.4,0.9l0.9-0.4l1.3-0.6
		l1-0.4l-0.5-0.9c-0.9-1.7-1.6-3.3-2.2-4.8L7.9,85.7L7.9,85.7z M119.9,86.7l-0.4,0.8c-0.3,0.6-0.6,1.2-0.9,1.8c-0.5,1-0.9,2-1.5,2.9
		l-0.5,0.9l0.9,0.5l1.3,0.7l0.9,0.5l0.4-1l2.3-5l0.5-1l-1-0.4l-1.3-0.5L119.9,86.7L119.9,86.7z M12.4,95l-0.8,0.6l-1.2,0.8l-0.8,0.5
		l0.5,0.8c1,1.6,2.1,3.1,3.2,4.6l0.6,0.9l0.8-0.7l1.1-0.9l0.7-0.6l-0.6-0.8c-1.1-1.4-2-2.9-3-4.4L12.4,95L12.4,95z M115,95.9
		l-0.6,0.8c-0.9,1.4-2,2.8-3.1,4.2l-0.6,0.8l0.8,0.6l1.2,0.9l0.8,0.6l0.6-0.8c1.2-1.5,2.3-3.2,3.2-4.5l0.6-0.8l-0.8-0.6l-1.2-0.8
		L115,95.9L115,95.9z M18.7,103.5l-0.7,0.7l-1.1,1l-0.7,0.7l0.6,0.7c1.1,1.3,2.3,2.5,3.9,4l0.7,0.7l0.7-0.7l1-1.1l0.7-0.7l-0.7-0.7
		c-1.2-1.1-2.4-2.4-3.7-3.8L18.7,103.5L18.7,103.5z M108.7,104.3L108,105c-1.1,1.2-2.4,2.4-3.8,3.7l-0.7,0.7l0.7,0.7l1,1.1l0.7,0.8
		l0.7-0.7c0.6-0.6,1.3-1.3,1.9-1.9c0.7-0.6,1.3-1.3,2-1.9l0.7-0.7l-0.8-0.7l-1.1-1L108.7,104.3L108.7,104.3z M26.3,110.7l-0.6,0.8
		l-0.9,1.2l-0.6,0.8l0.8,0.6c1.6,1.3,3.1,2.3,4.5,3.2l0.8,0.5l0.5-0.8l0.8-1.2l0.6-0.8l-0.8-0.6c-1.4-0.9-2.8-2-4.2-3.1L26.3,110.7
		L26.3,110.7z M101,111.4l-0.8,0.6c-1.4,1.1-2.9,2-4.4,3l-0.8,0.6l0.6,0.8l0.8,1.2l0.6,0.8l0.8-0.6c0.4-0.3,0.8-0.6,1.3-0.8
		c1.1-0.7,2.2-1.4,3.3-2.2l0.8-0.6l-0.6-0.8l-0.9-1.2L101,111.4L101,111.4z M35,116.6l-0.5,0.9l-0.7,1.3l-0.5,0.9l0.9,0.5
		c1.5,0.8,3.2,1.7,5,2.4l0.9,0.4l0.4-0.9l0.6-1.3l0.4-0.9l-0.9-0.4c-0.6-0.3-1.2-0.6-1.8-0.9c-1-0.5-2-0.9-2.9-1.5L35,116.6
		L35,116.6z M92.1,117l-0.9,0.5c-1.7,0.9-3.3,1.6-4.8,2.2l-0.9,0.4l0.4,0.9l0.6,1.4l0.4,0.9l0.9-0.4c1.7-0.7,3.4-1.5,5.1-2.4
		l0.9-0.5l-0.5-0.9l-0.7-1.3L92.1,117L92.1,117z M44.5,120.8l-0.3,0.9l-0.5,1.4l-0.3,1l1,0.3c1.8,0.6,3.6,1.1,5.4,1.5l0.9,0.2
		l0.3-0.9l0.4-1.4l0.3-1l-1-0.3c-0.5-0.2-1.1-0.3-1.6-0.4c-1.2-0.3-2.4-0.6-3.5-1L44.5,120.8L44.5,120.8z M82.5,121.1l-1,0.3
		c-1.8,0.6-3.4,1-5.1,1.3l-1,0.2l0.2,1l0.3,1.4l0.2,0.9l0.9-0.1c1.8-0.3,3.5-0.7,5.5-1.4l0.9-0.3l-0.3-0.9l-0.4-1.4L82.5,121.1
		L82.5,121.1z M54.6,123.4l-0.1,1l-0.2,1.5l-0.1,1l1,0.1l0.5,0.1c1.7,0.2,3.3,0.4,5,0.4l1.1,0.1v-1.1V125v-0.9l-0.9-0.1
		c-1.7-0.1-3.5-0.3-5.2-0.5L54.6,123.4L54.6,123.4z M72.3,123.5l-1,0.1c-1.7,0.2-3.5,0.3-5.2,0.4l-1,0.1l0.1,1l0.1,1.5l0.1,1l1-0.1
		l0.3,0c1.7-0.1,3.5-0.2,5.2-0.4l1-0.1l-0.1-1l-0.2-1.5L72.3,123.5L72.3,123.5z"/>
</g>
<g>
	<path class="st0" d="M112,30c-7.6,0-13.9-6.2-13.9-13.9S104.3,2.2,112,2.2c7.6,0,13.8,6.2,13.8,13.9S119.6,30,112,30z"/>
	<path class="st1" d="M111.9,2.7c7.4,0,13.4,6,13.4,13.4c0,7.4-6,13.4-13.4,13.4c-7.4,0-13.3-6-13.3-13.4
		C98.6,8.7,104.6,2.7,111.9,2.7 M111.9,1.7c-7.9,0-14.3,6.4-14.3,14.4s6.4,14.4,14.3,14.4s14.4-6.4,14.4-14.4S119.9,1.7,111.9,1.7
		L111.9,1.7z"/>
</g>
</svg>
