<?xml version="1.0" encoding="utf-8"?>
<!-- Generator: Adobe Illustrator 27.0.0, SVG Export Plug-In . SVG Version: 6.00 Build 0)  -->
<svg version="1.1" id="Livello_1" xmlns="http://www.w3.org/2000/svg" xmlns:xlink="http://www.w3.org/1999/xlink" x="0px" y="0px"
	 viewBox="0 0 100 100" style="enable-background:new 0 0 100 100;" xml:space="preserve">
<style type="text/css">
	.st0{fill:#FFFFFF;}
</style>
<path class="st0" d="M2.9,13c-2.7-2.7-2.7-7.2,0-9.9c1.4-1.4,3.2-2,5-2s3.6,0.7,5,2l37,37l37-37c1.4-1.4,3.2-2,5-2
	c1.8,0,3.6,0.7,5,2c2.7,2.7,2.7,7.2,0,9.9l-37,37l37,37c2.7,2.7,2.7,7.2,0,9.9c-2.7,2.7-7.2,2.7-9.9,0l-37-37l-37,37
	c-2.7,2.7-7.2,2.7-9.9,0c-2.7-2.7-2.7-7.2,0-9.9l37-37L2.9,13z"/>
</svg>
