<svg class="border shadow-md" viewBox="0 0 436.48 436.48" xmlns="http://www.w3.org/2000/svg" preserveAspectRatio="none" style="width: 436.48px; height: 436.48px;"><rect class="bg" id="bg" x="0" y="0" width="436.48" height="436.48" fill="#FFFFFF00"/><rect x="-20" y="2.1824" width="43.648" height="13.0944" rx="6.5472" fill="#E4AFFF" opacity="1"/><rect x="33.648" y="2.1824" width="43.648" height="13.0944" rx="6.5472" fill="#F5CF05" opacity="1"/><rect x="87.296" y="2.1824" width="43.648" height="13.0944" rx="6.5472" fill="#FBE300" opacity="1"/><rect x="140.94400000000002" y="2.1824" width="98" height="13.0944" rx="6.5472" fill="#FBE300" opacity="1"/><rect x="248.94400000000002" y="2.1824" width="87" height="13.0944" rx="6.5472" fill="#C86BFA" opacity="1"/><rect x="345.944" y="2.1824" width="96" height="13.0944" rx="6.5472" fill="#F5CF05" opacity="1"/><rect x="-20" y="19.6416" width="45" height="13.0944" rx="6.5472" fill="#C86BFA" opacity="1"/><rect x="35" y="19.6416" width="60" height="13.0944" rx="6.5472" fill="#FBE300" opacity="1"/><rect x="105" y="19.6416" width="90" height="13.0944" rx="6.5472" fill="#E4AFFF" opacity="1"/><rect x="205" y="19.6416" width="43.648" height="13.0944" rx="6.5472" fill="#FBE300" opacity="1"/><rect x="258.648" y="19.6416" width="43.648" height="13.0944" rx="6.5472" fill="#E4AFFF" opacity="1"/><rect x="312.296" y="19.6416" width="43.648" height="13.0944" rx="6.5472" fill="#47026C" opacity="1"/><rect x="365.944" y="19.6416" width="111" height="13.0944" rx="6.5472" fill="#47026C" opacity="1"/><rect x="-20" y="37.1008" width="74" height="13.0944" rx="6.5472" fill="#C86BFA" opacity="1"/><rect x="64" y="37.1008" width="83" height="13.0944" rx="6.5472" fill="#E4AFFF" opacity="1"/><rect x="157" y="37.1008" width="54" height="13.0944" rx="6.5472" fill="#E4AFFF" opacity="1"/><rect x="221" y="37.1008" width="117" height="13.0944" rx="6.5472" fill="#FBE300" opacity="1"/><rect x="348" y="37.1008" width="142" height="13.0944" rx="6.5472" fill="#F5CF05" opacity="1"/><rect x="-20" y="54.56" width="71" height="13.0944" rx="6.5472" fill="#F5CF05" opacity="1"/><rect x="61" y="54.56" width="91" height="13.0944" rx="6.5472" fill="#C86BFA" opacity="1"/><rect x="162" y="54.56" width="43.648" height="13.0944" rx="6.5472" fill="#FBE300" opacity="1"/><rect x="215.648" y="54.56" width="119" height="13.0944" rx="6.5472" fill="#C86BFA" opacity="1"/><rect x="344.648" y="54.56" width="138" height="13.0944" rx="6.5472" fill="#E4AFFF" opacity="1"/><rect x="-20" y="72.0192" width="106" height="13.0944" rx="6.5472" fill="#F5CF05" opacity="1"/><rect x="96" y="72.0192" width="94" height="13.0944" rx="6.5472" fill="#F5CF05" opacity="1"/><rect x="200" y="72.0192" width="49" height="13.0944" rx="6.5472" fill="#E4AFFF" opacity="1"/><rect x="259" y="72.0192" width="43.648" height="13.0944" rx="6.5472" fill="#C86BFA" opacity="1"/><rect x="312.648" y="72.0192" width="102" height="13.0944" rx="6.5472" fill="#F5CF05" opacity="1"/><rect x="424.648" y="72.0192" width="50" height="13.0944" rx="6.5472" fill="#C86BFA" opacity="1"/><rect x="-20" y="89.4784" width="58" height="13.0944" rx="6.5472" fill="#C86BFA" opacity="1"/><rect x="48" y="89.4784" width="131" height="13.0944" rx="6.5472" fill="#C86BFA" opacity="1"/><rect x="189" y="89.4784" width="140" height="13.0944" rx="6.5472" fill="#47026C" opacity="1"/><rect x="339" y="89.4784" width="43.648" height="13.0944" rx="6.5472" fill="#E4AFFF" opacity="1"/><rect x="392.648" y="89.4784" width="43.648" height="13.0944" rx="6.5472" fill="#47026C" opacity="1"/><rect x="446.29600000000005" y="89.4784" width="107" height="13.0944" rx="6.5472" fill="#E4AFFF" opacity="1"/><rect x="-20" y="106.9376" width="52" height="13.0944" rx="6.5472" fill="#C86BFA" opacity="1"/><rect x="42" y="106.9376" width="116" height="13.0944" rx="6.5472" fill="#FBE300" opacity="1"/><rect x="168" y="106.9376" width="43.648" height="13.0944" rx="6.5472" fill="#47026C" opacity="1"/><rect x="221.648" y="106.9376" width="142" height="13.0944" rx="6.5472" fill="#F5CF05" opacity="1"/><rect x="373.648" y="106.9376" width="43.648" height="13.0944" rx="6.5472" fill="#FBE300" opacity="1"/><rect x="427.29600000000005" y="106.9376" width="128" height="13.0944" rx="6.5472" fill="#47026C" opacity="1"/><rect x="-20" y="124.3968" width="91" height="13.0944" rx="6.5472" fill="#C86BFA" opacity="1"/><rect x="81" y="124.3968" width="43.648" height="13.0944" rx="6.5472" fill="#FBE300" opacity="1"/><rect x="134.648" y="124.3968" width="71" height="13.0944" rx="6.5472" fill="#F5CF05" opacity="1"/><rect x="215.648" y="124.3968" width="81" height="13.0944" rx="6.5472" fill="#47026C" opacity="1"/><rect x="306.648" y="124.3968" width="43.648" height="13.0944" rx="6.5472" fill="#C86BFA" opacity="1"/><rect x="360.29600000000005" y="124.3968" width="132" height="13.0944" rx="6.5472" fill="#F5CF05" opacity="1"/><rect x="-20" y="141.856" width="64" height="13.0944" rx="6.5472" fill="#E4AFFF" opacity="1"/><rect x="54" y="141.856" width="129" height="13.0944" rx="6.5472" fill="#C86BFA" opacity="1"/><rect x="193" y="141.856" width="43.648" height="13.0944" rx="6.5472" fill="#C86BFA" opacity="1"/><rect x="246.648" y="141.856" width="139" height="13.0944" rx="6.5472" fill="#FBE300" opacity="1"/><rect x="395.648" y="141.856" width="43.648" height="13.0944" rx="6.5472" fill="#47026C" opacity="1"/><rect x="-20" y="159.3152" width="98" height="13.0944" rx="6.5472" fill="#47026C" opacity="1"/><rect x="88" y="159.3152" width="64" height="13.0944" rx="6.5472" fill="#FBE300" opacity="1"/><rect x="162" y="159.3152" width="126" height="13.0944" rx="6.5472" fill="#FBE300" opacity="1"/><rect x="298" y="159.3152" width="43.648" height="13.0944" rx="6.5472" fill="#FBE300" opacity="1"/><rect x="351.648" y="159.3152" width="128" height="13.0944" rx="6.5472" fill="#C86BFA" opacity="1"/><rect x="-20" y="176.77439999999999" width="55" height="13.0944" rx="6.5472" fill="#E4AFFF" opacity="1"/><rect x="45" y="176.77439999999999" width="107" height="13.0944" rx="6.5472" fill="#F5CF05" opacity="1"/><rect x="162" y="176.77439999999999" width="43.648" height="13.0944" rx="6.5472" fill="#E4AFFF" opacity="1"/><rect x="215.648" y="176.77439999999999" width="43.648" height="13.0944" rx="6.5472" fill="#F5CF05" opacity="1"/><rect x="269.296" y="176.77439999999999" width="135" height="13.0944" rx="6.5472" fill="#C86BFA" opacity="1"/><rect x="414.296" y="176.77439999999999" width="98" height="13.0944" rx="6.5472" fill="#C86BFA" opacity="1"/><rect x="-20" y="194.2336" width="43.648" height="13.0944" rx="6.5472" fill="#47026C" opacity="1"/><rect x="33.648" y="194.2336" width="86" height="13.0944" rx="6.5472" fill="#47026C" opacity="1"/><rect x="129.648" y="194.2336" width="92" height="13.0944" rx="6.5472" fill="#E4AFFF" opacity="1"/><rect x="231.648" y="194.2336" width="111" height="13.0944" rx="6.5472" fill="#C86BFA" opacity="1"/><rect x="352.648" y="194.2336" width="43.648" height="13.0944" rx="6.5472" fill="#E4AFFF" opacity="1"/><rect x="406.29600000000005" y="194.2336" width="75" height="13.0944" rx="6.5472" fill="#E4AFFF" opacity="1"/><rect x="-20" y="211.6928" width="133" height="13.0944" rx="6.5472" fill="#FBE300" opacity="1"/><rect x="123" y="211.6928" width="136" height="13.0944" rx="6.5472" fill="#E4AFFF" opacity="1"/><rect x="269" y="211.6928" width="83" height="13.0944" rx="6.5472" fill="#E4AFFF" opacity="1"/><rect x="362" y="211.6928" width="49" height="13.0944" rx="6.5472" fill="#FBE300" opacity="1"/><rect x="421" y="211.6928" width="132" height="13.0944" rx="6.5472" fill="#FBE300" opacity="1"/><rect x="-20" y="229.152" width="97" height="13.0944" rx="6.5472" fill="#47026C" opacity="1"/><rect x="87" y="229.152" width="44" height="13.0944" rx="6.5472" fill="#E4AFFF" opacity="1"/><rect x="141" y="229.152" width="83" height="13.0944" rx="6.5472" fill="#C86BFA" opacity="1"/><rect x="234" y="229.152" width="43.648" height="13.0944" rx="6.5472" fill="#C86BFA" opacity="1"/><rect x="287.648" y="229.152" width="43.648" height="13.0944" rx="6.5472" fill="#C86BFA" opacity="1"/><rect x="341.29600000000005" y="229.152" width="93" height="13.0944" rx="6.5472" fill="#E4AFFF" opacity="1"/><rect x="444.29600000000005" y="229.152" width="43.648" height="13.0944" rx="6.5472" fill="#FBE300" opacity="1"/><rect x="-20" y="246.6112" width="43.648" height="13.0944" rx="6.5472" fill="#E4AFFF" opacity="1"/><rect x="33.648" y="246.6112" width="96" height="13.0944" rx="6.5472" fill="#F5CF05" opacity="1"/><rect x="139.648" y="246.6112" width="144" height="13.0944" rx="6.5472" fill="#C86BFA" opacity="1"/><rect x="293.648" y="246.6112" width="57" height="13.0944" rx="6.5472" fill="#FBE300" opacity="1"/><rect x="360.648" y="246.6112" width="70" height="13.0944" rx="6.5472" fill="#E4AFFF" opacity="1"/><rect x="440.648" y="246.6112" width="136" height="13.0944" rx="6.5472" fill="#C86BFA" opacity="1"/><rect x="-20" y="264.07039999999995" width="80" height="13.0944" rx="6.5472" fill="#C86BFA" opacity="1"/><rect x="70" y="264.07039999999995" width="57" height="13.0944" rx="6.5472" fill="#E4AFFF" opacity="1"/><rect x="137" y="264.07039999999995" width="43.648" height="13.0944" rx="6.5472" fill="#47026C" opacity="1"/><rect x="190.648" y="264.07039999999995" width="86" height="13.0944" rx="6.5472" fill="#E4AFFF" opacity="1"/><rect x="286.648" y="264.07039999999995" width="47" height="13.0944" rx="6.5472" fill="#E4AFFF" opacity="1"/><rect x="343.648" y="264.07039999999995" width="132" height="13.0944" rx="6.5472" fill="#E4AFFF" opacity="1"/><rect x="-20" y="281.52959999999996" width="136" height="13.0944" rx="6.5472" fill="#C86BFA" opacity="1"/><rect x="126" y="281.52959999999996" width="107" height="13.0944" rx="6.5472" fill="#E4AFFF" opacity="1"/><rect x="243" y="281.52959999999996" width="59" height="13.0944" rx="6.5472" fill="#FBE300" opacity="1"/><rect x="312" y="281.52959999999996" width="91" height="13.0944" rx="6.5472" fill="#E4AFFF" opacity="1"/><rect x="413" y="281.52959999999996" width="103" height="13.0944" rx="6.5472" fill="#47026C" opacity="1"/><rect x="-20" y="298.98879999999997" width="92" height="13.0944" rx="6.5472" fill="#F5CF05" opacity="1"/><rect x="82" y="298.98879999999997" width="110" height="13.0944" rx="6.5472" fill="#47026C" opacity="1"/><rect x="202" y="298.98879999999997" width="73" height="13.0944" rx="6.5472" fill="#C86BFA" opacity="1"/><rect x="285" y="298.98879999999997" width="104" height="13.0944" rx="6.5472" fill="#FBE300" opacity="1"/><rect x="399" y="298.98879999999997" width="108" height="13.0944" rx="6.5472" fill="#FBE300" opacity="1"/><rect x="-20" y="316.448" width="43.648" height="13.0944" rx="6.5472" fill="#F5CF05" opacity="1"/><rect x="33.648" y="316.448" width="102" height="13.0944" rx="6.5472" fill="#FBE300" opacity="1"/><rect x="145.648" y="316.448" width="90" height="13.0944" rx="6.5472" fill="#E4AFFF" opacity="1"/><rect x="245.648" y="316.448" width="116" height="13.0944" rx="6.5472" fill="#FBE300" opacity="1"/><rect x="371.648" y="316.448" width="110" height="13.0944" rx="6.5472" fill="#C86BFA" opacity="1"/><rect x="-20" y="333.90719999999993" width="43.648" height="13.0944" rx="6.5472" fill="#F5CF05" opacity="1"/><rect x="33.648" y="333.90719999999993" width="43.648" height="13.0944" rx="6.5472" fill="#F5CF05" opacity="1"/><rect x="87.296" y="333.90719999999993" width="54" height="13.0944" rx="6.5472" fill="#E4AFFF" opacity="1"/><rect x="151.296" y="333.90719999999993" width="43.648" height="13.0944" rx="6.5472" fill="#E4AFFF" opacity="1"/><rect x="204.944" y="333.90719999999993" width="129" height="13.0944" rx="6.5472" fill="#47026C" opacity="1"/><rect x="343.94399999999996" y="333.90719999999993" width="43.648" height="13.0944" rx="6.5472" fill="#F5CF05" opacity="1"/><rect x="397.592" y="333.90719999999993" width="52" height="13.0944" rx="6.5472" fill="#F5CF05" opacity="1"/><rect x="-20" y="351.36639999999994" width="54" height="13.0944" rx="6.5472" fill="#F5CF05" opacity="1"/><rect x="44" y="351.36639999999994" width="85" height="13.0944" rx="6.5472" fill="#47026C" opacity="1"/><rect x="139" y="351.36639999999994" width="54" height="13.0944" rx="6.5472" fill="#FBE300" opacity="1"/><rect x="203" y="351.36639999999994" width="98" height="13.0944" rx="6.5472" fill="#C86BFA" opacity="1"/><rect x="311" y="351.36639999999994" width="50" height="13.0944" rx="6.5472" fill="#47026C" opacity="1"/><rect x="371" y="351.36639999999994" width="108" height="13.0944" rx="6.5472" fill="#FBE300" opacity="1"/><rect x="-20" y="368.82559999999995" width="131" height="13.0944" rx="6.5472" fill="#FBE300" opacity="1"/><rect x="121" y="368.82559999999995" width="119" height="13.0944" rx="6.5472" fill="#F5CF05" opacity="1"/><rect x="250" y="368.82559999999995" width="43.648" height="13.0944" rx="6.5472" fill="#FBE300" opacity="1"/><rect x="303.648" y="368.82559999999995" width="61" height="13.0944" rx="6.5472" fill="#47026C" opacity="1"/><rect x="374.648" y="368.82559999999995" width="124" height="13.0944" rx="6.5472" fill="#47026C" opacity="1"/><rect x="-20" y="386.28479999999996" width="85" height="13.0944" rx="6.5472" fill="#47026C" opacity="1"/><rect x="75" y="386.28479999999996" width="81" height="13.0944" rx="6.5472" fill="#F5CF05" opacity="1"/><rect x="166" y="386.28479999999996" width="43.648" height="13.0944" rx="6.5472" fill="#FBE300" opacity="1"/><rect x="219.648" y="386.28479999999996" width="118" height="13.0944" rx="6.5472" fill="#FBE300" opacity="1"/><rect x="347.648" y="386.28479999999996" width="43.648" height="13.0944" rx="6.5472" fill="#F5CF05" opacity="1"/><rect x="401.29600000000005" y="386.28479999999996" width="142" height="13.0944" rx="6.5472" fill="#FBE300" opacity="1"/><rect x="-20" y="403.74399999999997" width="54" height="13.0944" rx="6.5472" fill="#F5CF05" opacity="1"/><rect x="44" y="403.74399999999997" width="43.648" height="13.0944" rx="6.5472" fill="#C86BFA" opacity="1"/><rect x="97.648" y="403.74399999999997" width="43.648" height="13.0944" rx="6.5472" fill="#FBE300" opacity="1"/><rect x="151.296" y="403.74399999999997" width="77" height="13.0944" rx="6.5472" fill="#C86BFA" opacity="1"/><rect x="238.296" y="403.74399999999997" width="57" height="13.0944" rx="6.5472" fill="#F5CF05" opacity="1"/><rect x="305.296" y="403.74399999999997" width="86" height="13.0944" rx="6.5472" fill="#C86BFA" opacity="1"/><rect x="401.296" y="403.74399999999997" width="129" height="13.0944" rx="6.5472" fill="#C86BFA" opacity="1"/><rect x="-20" y="421.2032" width="143" height="13.0944" rx="6.5472" fill="#F5CF05" opacity="1"/><rect x="133" y="421.2032" width="125" height="13.0944" rx="6.5472" fill="#F5CF05" opacity="1"/><rect x="268" y="421.2032" width="43.648" height="13.0944" rx="6.5472" fill="#E4AFFF" opacity="1"/><rect x="321.648" y="421.2032" width="140" height="13.0944" rx="6.5472" fill="#F5CF05" opacity="1"/></svg>