<?xml version="1.0" encoding="utf-8"?>
<!-- Generator: $$$/GeneralStr/196=Adobe Illustrator 27.6.0, SVG Export Plug-In . SVG Version: 6.00 Build 0)  -->
<svg version="1.1" id="Livello_1" xmlns="http://www.w3.org/2000/svg" xmlns:xlink="http://www.w3.org/1999/xlink" x="0px" y="0px"
	 viewBox="0 0 128 128" style="enable-background:new 0 0 128 128;" xml:space="preserve">
<style type="text/css">
	.st0{opacity:0.4;fill:#FFFFFF;}
</style>
<path class="st0" d="M64,0.5c-20.1,0-38.1,9.4-49.7,24c-0.2,0.3-0.6,0.8-1,1.3C6.9,34.2,4,42.6,2.7,47.3C1.2,52.6,0.5,58.2,0.5,64
	c0,35,28.5,63.5,63.5,63.5c20.1,0,38.1-9.4,49.7-24c0,0,0,0,0.1-0.1c0.3-0.4,0.6-0.8,0.9-1.2c8-10.6,12.8-23.9,12.8-38.2
	C127.5,29,99,0.5,64,0.5z M64,15.5c26.8,0,48.5,21.8,48.5,48.5c0,8.5-2.2,16.4-6,23.4L30.7,28.8C39.4,20.5,51.1,15.5,64,15.5z
	 M64,112.5c-26.8,0-48.5-21.8-48.5-48.5c0-8.5,2.2-16.4,6-23.4l75.9,58.6C88.6,107.5,76.9,112.5,64,112.5z"/>
</svg>
