<?xml version="1.0" encoding="utf-8"?>
<!-- Generator: $$$/GeneralStr/196=Adobe Illustrator 27.6.0, SVG Export Plug-In . SVG Version: 6.00 Build 0)  -->
<svg version="1.1" id="Livello_1" xmlns="http://www.w3.org/2000/svg" xmlns:xlink="http://www.w3.org/1999/xlink" x="0px" y="0px"
	 viewBox="0 0 128 128" style="enable-background:new 0 0 128 128;" xml:space="preserve">
<style type="text/css">
	.st0{fill-rule:evenodd;clip-rule:evenodd;fill:#FFFFFF;}
</style>
<path class="st0" d="M63,1.1c-0.2,0.1-1.2,1.5-2.1,3.1c-2.4,3.9-2.4,3.9-5.6,0.5c-2.1-2.2-2.6-2.6-3.2-2.6c-0.4,0-1,0.1-1.2,0.3
	c-0.2,0.2-0.9,1.6-1.5,3.1c-1.3,3.5-1.4,3.7-2.1,3.8c-0.5,0.1-1.3-0.4-3.4-1.9c-1.5-1.1-3.1-2-3.4-2c-1.3,0-1.6,0.7-2.2,4.3
	c-0.8,4.6-0.7,4.6-4.9,2.7c-1.7-0.8-3.3-1.4-3.6-1.4s-0.8,0.3-1.1,0.6c-0.6,0.6-0.6,0.6-0.5,4.2l0.2,3.5l-0.7,0.4
	c-0.6,0.3-1,0.3-3.6-0.3c-3.4-0.8-4.2-0.8-4.9,0.1l-0.5,0.7l0.7,2.9c0.4,1.6,0.7,3.2,0.8,3.4c0.1,0.3,0,0.7-0.3,1
	c-0.3,0.4-0.7,0.5-3.9,0.4c-5.4-0.1-5.7,0.4-3.5,5.2c0.7,1.5,1.3,2.9,1.3,3.1c0,0.9-0.7,1.2-3.7,1.7c-1.7,0.3-3.2,0.5-3.3,0.5
	c-0.1,0-0.4,0.2-0.7,0.5C5.2,40.2,5.4,41,7.5,44c2.6,3.7,2.6,3.7-1.7,5.3c-4.9,1.9-5,2.3-1.3,5.9C8,58.5,8,58.5,4.1,60.9
	c-3,1.9-3,1.9-3.1,2.9c-0.1,1.2-0.1,1.3,3.5,3.4C8,69.5,8,69.5,4.5,72.8c-3.7,3.5-3.6,4,1.3,5.9c4.3,1.6,4.3,1.6,1.7,5.3
	c-1.5,2.1-2,3-2,3.6c0,1.2,0.6,1.5,4.4,2.1c3.2,0.5,3.9,0.8,3.9,1.7c0,0.2-0.6,1.6-1.3,3.1c-2.2,4.8-2,5.2,3.3,5.2
	c4.9,0,4.7-0.1,3.7,4.2c-0.8,3.3-0.8,3.9-0.1,4.6c0.5,0.5,1.6,0.5,4.8-0.3c2.5-0.6,2.9-0.6,3.5-0.3l0.7,0.3l-0.2,3.5
	c-0.2,3.5-0.2,3.5,0.5,4.2c0.4,0.4,0.9,0.6,1.1,0.6s1.9-0.6,3.6-1.4c4.2-1.9,4.1-1.9,4.9,2.7c0.6,3.7,1,4.3,2.3,4.3
	c0.3,0,1.8-0.9,3.3-1.9c2.6-1.9,3.3-2.2,4-1.7c0.2,0.1,0.9,1.6,1.6,3.4c1,2.6,1.4,3.3,1.9,3.5c1,0.5,1.7,0.1,4.2-2.6
	c3-3.2,3.1-3.2,5.5,0.7c2.7,4.3,3.4,4.3,6.1-0.1c2.4-3.8,2.3-3.8,5.5-0.5c2.1,2.2,2.6,2.6,3.3,2.6c0.5,0,1-0.2,1.2-0.4
	c0.2-0.2,0.9-1.8,1.5-3.4c0.6-1.7,1.3-3.2,1.5-3.3c0.7-0.4,1.4-0.1,4,1.7c1.5,1.1,3,1.9,3.3,1.9c1.3,0,1.7-0.9,2.3-4.5
	c0.5-3,0.5-3.3,1.1-3.6c0.6-0.3,0.9-0.2,3.7,1.1c1.7,0.8,3.3,1.4,3.6,1.4c0.3,0,0.8-0.3,1.2-0.7l0.7-0.7l-0.2-3.4
	c-0.2-3.2-0.2-3.4,0.4-3.9c0.5-0.5,0.6-0.5,3.6,0.2c3.6,0.8,4.3,0.8,5,0.2c0.7-0.7,0.7-0.8-0.3-4.6c-1-4.3-1.2-4.1,3.7-4.1
	c3.3,0,3.7,0,4.1-0.5c0.7-0.8,0.5-1.7-0.9-4.7c-0.7-1.5-1.3-2.9-1.3-3.1c0-0.9,0.7-1.2,4-1.7c2-0.3,3.5-0.7,3.8-0.9
	c0.9-0.8,0.6-1.9-1.5-4.8c-2.6-3.7-2.6-3.7,1.6-5.2c5-1.8,5.1-2.5,1.4-6c-3.5-3.3-3.5-3.3,0.3-5.6c4.6-2.8,4.6-3.4,0.1-6.2
	c-3.9-2.4-3.9-2.4-0.4-5.7c3.7-3.5,3.6-4-1.3-5.9c-4.3-1.7-4.3-1.7-1.7-5.3c1.6-2.1,2-2.9,2-3.6c0-1.3-0.6-1.6-4.4-2.2
	c-3.2-0.5-3.9-0.8-3.9-1.7c0-0.2,0.6-1.6,1.3-3.1c1.4-3,1.6-4.2,0.8-4.9c-0.4-0.4-1-0.4-4-0.4c-3.2,0.1-3.6,0-4-0.4
	c-0.5-0.5-0.5-0.5,0.3-3.7c0.9-3.8,0.9-3.9,0.2-4.6c-0.8-0.7-1.2-0.7-4.8,0.1c-2.6,0.6-3,0.6-3.6,0.3l-0.7-0.4l0.2-3.5l0.2-3.5
	l-0.7-0.7c-0.4-0.4-0.9-0.7-1.1-0.7c-0.3,0-1.9,0.6-3.5,1.4c-2.8,1.3-3.1,1.4-3.7,1.1c-0.6-0.3-0.7-0.6-1.2-3.8
	c-0.6-3.6-1-4.3-2.3-4.3c-0.3,0-1.8,0.9-3.4,2c-2.5,1.8-2.9,2-3.5,1.8c-0.5-0.2-0.8-0.6-1.2-1.6C79,7,78.5,5.6,78.1,4.6
	c-0.8-2-1.2-2.4-2.3-2.4c-0.6,0-1.2,0.5-3.2,2.6c-3.2,3.3-3.2,3.3-5.6-0.5c-0.9-1.5-1.9-2.9-2.2-3.1C64.2,0.8,63.5,0.8,63,1.1
	 M65.9,12.8c2.8,2,1.3,6.7-2.1,6.7c-3.3,0-5-4-2.6-6.3C62.5,11.9,64.4,11.7,65.9,12.8 M62.4,25.1c1.8,0.7,2.6,0.3,6.8-3.7l3.1-3
	l1.3,0.2c4.2,0.6,12.4,4.2,17.2,7.6c4.4,3.1,10.2,9.4,12.7,13.7l0.5,0.9l-2.3,5.3c-1.3,2.9-2.3,5.6-2.3,6c0,0.9,0.6,2.2,1.1,2.7
	c0.2,0.2,2.4,1.2,4.9,2.3l4.4,2l0.2,1.1c0.2,1.5,0.3,5.1,0.1,6.1l-0.2,0.8h-2.5c-2.9,0-2.7-0.3-2.9,3.3c-0.1,2.6-0.7,4.1-2.2,5
	c-2.3,1.5-6.2,1.3-7.9-0.6c-0.3-0.3-0.7-1.7-1.1-3.1c-1-4.2-2.4-6.5-5.1-8.8c-0.9-0.7-1.6-1.4-1.6-1.5c0-0.1,1-0.9,2.1-1.8
	c4.2-3.2,6.7-6.9,6.9-10.6c0.5-7-5.1-13.6-13.4-15.7c-2-0.5-2.8-0.5-27.2-0.5c-13.9,0-25.2-0.1-25.2-0.2c0-0.3,3.1-3.2,4.9-4.7
	c5-4.1,11.5-7.4,18.2-9.1l2.3-0.6l3.3,3.3C60.3,23.4,62,25,62.4,25.1 M20.9,46.6c1.5,1,2.1,3.5,1.2,5c-1.4,2.3-4.9,2.4-6.3,0.2
	C13.9,48.5,17.7,44.5,20.9,46.6 M110.3,46.7c4,2.4,0.9,8.4-3.4,6.5c-2.8-1.3-2.9-5.1-0.2-6.5C108,46.1,109.3,46.1,110.3,46.7
	 M32.6,61.5v14.8H19.5L19,74.1c-1-4.4-1.5-9-1.2-12.8l0.2-2.6l4.5-2c2.8-1.3,4.6-2.2,4.9-2.6c1-1.6,0.9-2.7-0.5-5.8l-0.7-1.5h6.4
	V61.5 M70.3,47.4c2.8,0.7,4.3,2.2,4.3,4.3c0,1.5-0.8,2.5-2.6,3.3c-1.3,0.6-1.5,0.6-9.9,0.7l-8.6,0.1V47h7.7
	C67.1,47,69.1,47.1,70.3,47.4 M67.4,68.6c1.4,0.4,3,1.6,3.9,2.8c0.9,1.3,1.4,3,2.6,8.7c1,4.8,1.7,6.4,3.6,8.4
	c2.3,2.5,1.8,2.4,13.3,2.4c5.5,0,10.1,0.1,10.1,0.2c0,0.2-3.8,4.7-4,4.7c0,0-2-0.4-4.4-0.9c-6.7-1.4-7-1.3-8.5,5.9l-1,4.6l-0.9,0.4
	c-1.5,0.7-6.4,2.3-8.9,2.8c-4.2,0.9-8.7,1.1-12.7,0.8c-6.8-0.6-15.8-3.2-16.1-4.7c-0.1-0.3-0.5-2.4-1-4.6c-0.5-2.2-1.1-4.3-1.3-4.7
	c-1.1-1.7-2.3-1.8-7.4-0.7c-2,0.4-3.7,0.8-3.8,0.8c-0.2,0-3.9-4.2-3.9-4.5c0-0.1,8.6-0.2,19.1-0.2l19.1-0.1l0.1-6.8
	c0-4.8,0-6.9-0.2-7.1c-0.2-0.3-1.5-0.4-5.9-0.4h-5.6v-8.2l6.5,0C63.6,68.4,66.9,68.5,67.4,68.6 M37.9,99.5c3,1.9,1.6,6.7-2,6.7
	c-3.7,0-5.1-4.8-1.9-6.7C35.1,98.9,36.9,98.9,37.9,99.5 M93.6,99.7c1.5,1.1,2,3.4,1.1,4.9c-2.4,4-8.5,0.8-6.5-3.4
	C89.2,99.2,91.9,98.4,93.6,99.7"/>
</svg>
