<?xml version="1.0" encoding="utf-8"?>
<!-- Generator: $$$/GeneralStr/196=Adobe Illustrator 27.6.0, SVG Export Plug-In . SVG Version: 6.00 Build 0)  -->
<svg version="1.1" id="Livello_1" xmlns="http://www.w3.org/2000/svg" xmlns:xlink="http://www.w3.org/1999/xlink" x="0px" y="0px"
	 viewBox="0 0 128 128" style="enable-background:new 0 0 128 128;" xml:space="preserve">
<style type="text/css">
	.st0{opacity:0.5;fill-rule:evenodd;clip-rule:evenodd;}
	.st1{fill-rule:evenodd;clip-rule:evenodd;fill:#5586A4;}
</style>
<path class="st0" d="M27.4,76.6c-6.1,0-9.1-3.6-10.3-7.5c1.3,6.2,8.4,12.2,30.9,14.9c21.3,2.6,35.1-3.8,39.8-6.8
	c0,0,3.2-1.4,1.3,0.7c0,0-13.4,12.1-39.6,12.3c-26.3,0.1-47.1-12.9-47-26c-0.1-13.1,20.7-26.1,47-26c26.3,0.1,39.6,12.3,39.6,12.3
	c1.9,2.1-1.3,0.8-1.3,0.8c-4.7-3-18.5-8.8-39.8-6.8c-20.9,2-27.8,9-30.1,13.6c-0.9,1.8-1.3,3.5-1.4,5.2c0.6-4.5,3.4-9.8,10.8-9.8
	c8.3,0,10.9,6.8,10.9,11.5C38.2,69.7,35.7,76.6,27.4,76.6L27.4,76.6z M111.9,72.1h11.1v4h-15.8V54.1h4.7L111.9,72.1L111.9,72.1z
	 M94.7,64.2h9.3v11.8h-3.1l-0.5-2.7c-1.2,1.3-2.9,3.3-6.9,3.3c-5.4,0-10.2-3.8-10.2-11.4c0-6,3.4-11.6,10.9-11.6
	c6.8,0,9.5,4.4,9.8,7.4h-4.7c0-0.9-1.6-3.6-4.9-3.6c-3.3,0-6.4,2.3-6.4,7.9c0,6,3.3,7.5,6.5,7.5c1,0,4.4-0.4,5.4-4.8h-5.2L94.7,64.2
	L94.7,64.2z M27.5,56.2c-4.8,0-7.8,3.7-7.8,8.9c0,5.2,2.9,8.9,7.8,8.9c4.8,0,7.8-3.8,7.8-8.9C35.2,60,32.3,56.2,27.5,56.2z M40,62
	h2.3v2h0.1c0.6-0.8,1.7-2.4,4.2-2.4c3.8,0,6.5,3.2,6.5,7.1c0,3.3-2,7.7-6.8,7.7c-1.9,0-3.2-0.9-3.8-1.9h-0.1v7H40L40,62z M46.1,74.4
	c2.6,0,4.4-2.2,4.4-5.3c0-1.8-0.7-5.4-4.4-5.4c-3.5,0-3.8,3.7-3.8,5.9C42.2,73.4,44.6,74.4,46.1,74.4L46.1,74.4z M67.6,71.7
	c-0.1,0.7-0.7,2.7-2.5,3.8c-0.7,0.4-1.6,1-3.9,1c-4,0-6.4-3-6.4-7c0-4.3,2.1-7.8,6.8-7.8c4.1,0,6.1,3.2,6.1,8.2H57.3
	c0,2.9,1.4,4.6,4.1,4.6c2.3,0,3.6-1.7,3.7-2.8L67.6,71.7L67.6,71.7z M65.1,68c-0.1-2.2-1.1-4.2-4-4.2c-2.2,0-3.9,2-3.9,4.2H65.1z
	 M81.1,76h-2.4v-8.6c0-2.4-0.7-3.7-3.1-3.7c-1.4,0-3.8,0.9-3.8,4.7V76h-2.4V62h2.3v2h0.1c0.5-0.8,1.9-2.4,4.3-2.4c2.2,0,5,0.9,5,4.9
	L81.1,76"/>
<path class="st1" d="M26.3,75c-6.1,0-9.2-3.6-10.4-7.5c1.3,6.2,8.6,12.2,31.3,14.9c21.5,2.5,35.5-3.8,40.2-6.8c0,0,3.2-1.4,1.3,0.7
	c0,0-13.5,12.1-40.1,12.3C22,88.8,0.9,75.8,1.1,62.6C1,49.5,22,36.5,48.6,36.6c26.5,0.1,40.1,12.3,40.1,12.3
	c1.9,2.1-1.3,0.8-1.3,0.8c-4.7-3-18.7-8.8-40.2-6.8c-21.2,2-28.1,9-30.4,13.7c-0.8,1.6-1.3,3.4-1.4,5.2c0.6-4.5,3.4-9.8,10.9-9.8
	c8.4,0,11,6.8,11,11.6S34.7,75,26.3,75L26.3,75z M111.9,70.5h11.2v4h-15.9V52.6h4.7L111.9,70.5L111.9,70.5z M94.6,62.7h9.4v11.8
	h-3.1l-0.5-2.7c-1.2,1.3-2.9,3.3-7.1,3.3c-5.4,0-10.4-3.8-10.4-11.4c0-6,3.4-11.6,11-11.6c6.9,0,9.6,4.4,9.9,7.4h-4.7
	c0-0.9-1.6-3.6-4.9-3.6c-3.4,0-6.5,2.3-6.5,7.9c0,6,3.4,7.5,6.6,7.5c1,0,4.5-0.4,5.4-4.8h-5.2L94.6,62.7L94.6,62.7z M26.2,54.6
	c-4.9,0-7.9,3.7-7.9,8.9c0,5.1,2.9,8.9,7.9,8.9c4.9,0,7.9-3.8,7.9-8.9C34.1,58.4,31.1,54.6,26.2,54.6z M38.9,60.5h2.3v2h0.1
	c0.6-0.8,1.7-2.4,4.3-2.4c3.8,0,6.6,3.2,6.6,7.1c0,3.3-2,7.7-6.9,7.7c-1.9,0-3.2-0.9-3.8-1.9h-0.1v7h-2.4L38.9,60.5L38.9,60.5z
	 M45.1,72.9c2.6,0,4.4-2.2,4.4-5.3c0-1.8-0.8-5.4-4.5-5.4c-3.5,0-3.9,3.7-3.9,5.9C41.1,71.8,43.5,72.8,45.1,72.9L45.1,72.9z
	 M66.8,70.1c-0.1,0.7-0.7,2.7-2.6,3.8c-0.7,0.4-1.6,1-3.9,1c-4.1,0-6.5-3-6.5-7c0-4.3,2.2-7.8,6.9-7.8c4.2,0,6.2,3.2,6.2,8.2H56.5
	c0,2.9,1.4,4.6,4.2,4.6c2.3,0,3.6-1.7,3.7-2.8L66.8,70.1L66.8,70.1z M64.2,66.4c-0.1-2.2-1.1-4.2-4-4.2c-2.2,0-4,2-4,4.2H64.2z
	 M80.4,74.5H78v-8.6c0-2.4-0.7-3.7-3.1-3.7c-1.4,0-3.8,0.9-3.8,4.7v7.6h-2.4v-14h2.3v2H71c0.5-0.8,1.9-2.4,4.4-2.4
	c2.2,0,5,0.9,5,4.9L80.4,74.5 M0,0 M0,0"/>
</svg>
