<?xml version="1.0" encoding="utf-8"?>
<!-- Generator: Adobe Illustrator 27.0.0, SVG Export Plug-In . SVG Version: 6.00 Build 0)  -->
<svg version="1.1" id="Livello_1" xmlns="http://www.w3.org/2000/svg" xmlns:xlink="http://www.w3.org/1999/xlink" x="0px" y="0px"
	 viewBox="0 0 100 100" style="enable-background:new 0 0 100 100;" xml:space="preserve">
<style type="text/css">
	.st0{fill:#FFFFFF;}
</style>
<path class="st0" d="M99,36.5v43.4c0,4.8-3.9,8.6-8.6,8.6H9.7c-4.8,0-8.6-3.9-8.6-8.6V18.2c0-3.7,3-6.7,6.7-6.7h39.7
	c3.7,0,6.7,3,6.7,6.7v3c0,1.2-1,2.2-2.2,2.2H22.6c-1,0-2,0.7-2.2,1.7c-0.2,0.8,0.1,1.6,0.6,2.1c0.4,0.4,1,0.7,1.6,0.7h68
	C95.1,27.8,99,31.7,99,36.5z"/>
</svg>
